<svg id="Calque_1" data-name="Calque 1" xmlns="http://www.w3.org/2000/svg" xmlns:xlink="http://www.w3.org/1999/xlink" viewBox="0 0 30 29"><defs><style>.cls-1{fill:none;}.cls-2{clip-path:url(#clip-path);}.cls-3{fill:url(#Dégradé_sans_nom_67);}.cls-4{clip-path:url(#clip-path-2);}.cls-5{fill:url(#Dégradé_sans_nom_51);}.cls-6{clip-path:url(#clip-path-3);}.cls-7{clip-path:url(#clip-path-4);}.cls-8{clip-path:url(#clip-path-5);}.cls-9{fill:url(#Dégradé_sans_nom_51-2);}.cls-10{clip-path:url(#clip-path-6);}.cls-11{fill:url(#Dégradé_sans_nom_51-3);}.cls-12{clip-path:url(#clip-path-7);}.cls-13{fill:url(#Dégradé_sans_nom_51-4);}.cls-14{clip-path:url(#clip-path-8);}.cls-15{fill:url(#Dégradé_sans_nom_51-5);}.cls-16{clip-path:url(#clip-path-10);}.cls-17{clip-path:url(#clip-path-11);}.cls-18{fill:url(#Dégradé_sans_nom_51-6);}.cls-19{clip-path:url(#clip-path-12);}.cls-20{fill:url(#Dégradé_sans_nom_51-7);}.cls-21{clip-path:url(#clip-path-13);}.cls-22{fill:url(#Dégradé_sans_nom_51-8);}.cls-23{clip-path:url(#clip-path-14);}.cls-24{fill:url(#Dégradé_sans_nom_67-2);}.cls-25{clip-path:url(#clip-path-16);}.cls-26{clip-path:url(#clip-path-17);}.cls-27{fill:url(#Dégradé_sans_nom_67-3);}.cls-28{clip-path:url(#clip-path-18);}.cls-29{fill:url(#Dégradé_sans_nom_67-4);}.cls-30{clip-path:url(#clip-path-19);}.cls-31{fill:url(#Dégradé_sans_nom_67-5);}.cls-32{clip-path:url(#clip-path-21);}.cls-33{clip-path:url(#clip-path-22);}.cls-34{fill:url(#Dégradé_sans_nom_67-6);}.cls-35{clip-path:url(#clip-path-24);}.cls-36{clip-path:url(#clip-path-25);}.cls-37{fill:url(#Dégradé_sans_nom_67-7);}.cls-38{clip-path:url(#clip-path-27);}.cls-39{clip-path:url(#clip-path-28);}.cls-40{fill:url(#Dégradé_sans_nom_67-8);}</style><clipPath id="clip-path"><path class="cls-1" d="M14.84,17.53s5,1.39,5,3.34c0,1.71-1.5,3-5.2,3A15.6,15.6,0,0,1,5.7,21L3.59,25.79C6,27.69,10.29,29,14.56,29,22.26,29,26,25,26,20.39c0-6-9.84-8.28-9.84-8.28Z"/></clipPath><linearGradient id="Dégradé_sans_nom_67" x1="-408.51" y1="313.61" x2="-408.19" y2="313.61" gradientTransform="translate(-27763.22 21353.77) rotate(180) scale(68.03)" gradientUnits="userSpaceOnUse"><stop offset="0" stop-color="#92c73e"/><stop offset="1" stop-color="#239546"/></linearGradient><clipPath id="clip-path-2"><path class="cls-1" d="M10.68,16l.31.12a.28.28,0,0,0-.23-.13h-.08M9.62,14a.23.23,0,0,0,0-.14l1.08-.47h0a.22.22,0,0,0,.29.1l0,0,.55.57.94,1,0,.06ZM7.86,13.1a.26.26,0,0,0,0-.19l.47-.18.88,1,0,0Zm.55-.39.76-.3a.08.08,0,0,0,.08,0l.12,1.27-.06,0,0,0Zm.93.33-.06-.6h0l0,0,1.26.74.08,0a.2.2,0,0,0,0,.17l-1.08.48h0a.23.23,0,0,0-.2-.13Zm2.44,1.16-.73-.77a.23.23,0,0,0,0-.25.18.18,0,0,0-.05-.07l.39-.49.59-.75a.22.22,0,0,0,.16.05l.24,1.55.22,1.47-.05,0s0,0,0,0Zm.65-.72-.24-1.56.06,0,.08-.08,1.61,1.09.8.54a.24.24,0,0,0,0,.22h0L12.85,15a.25.25,0,0,0-.19-.09Zm-3.07-1.1a.14.14,0,0,0,0-.06l2.56-.58a.14.14,0,0,0,0,.06l0,0L11,13.1a.21.21,0,0,0-.23,0,.2.2,0,0,0-.08.08ZM5.79,11.29l.71,1.44-.8-.13a.34.34,0,0,0,0-.2.33.33,0,0,0-.2-.17l.21-.94h.11m.75,1.44-.72-1.44a.41.41,0,0,0,.11-.07l1.49,1.52a.31.31,0,0,0-.06.13Zm.54-1.51h0l.34.4.92,1.1-.45.18s0-.06,0-.08a.27.27,0,0,0-.32-.15Zm.41.39-.36-.43,0,0,2,1.13a.17.17,0,0,0,0,.1v0l-.75.3ZM6,11.2A.24.24,0,0,0,6,11.09S6,11,6,11l.74,0v.06a0,0,0,0,0,0,0,.15.15,0,0,0,0,.06l0,0a.21.21,0,0,0,.19,0l.48,1.43h0l-.06.05Zm3.41,1.05v0l.83-1.1L11,10.06a.2.2,0,0,0,.22,0L12,11.5h0a.26.26,0,0,0-.1.2l-1.54.35-1,.23,0,0M7.61,9.47,9.17,12.2l0,0-2-1.12a.22.22,0,0,0,0-.21.28.28,0,0,0-.13-.11l.41-1.31h.06l.09,0m0,0a.22.22,0,0,0,.09-.14l3.18.54a.25.25,0,0,0,0,.12.18.18,0,0,0,.05.07L9.33,12.21a.12.12,0,0,0-.14,0ZM6,11a.33.33,0,0,0-.21-.28h0l.28-1.87.8,2h0a.2.2,0,0,0-.09.09v0a.15.15,0,0,0,0,.07ZM6.1,8.77l.05-.36,1.17.75a.25.25,0,0,0,0,.12v0a.14.14,0,0,0,0,.07.23.23,0,0,0,.11.11L7,10.8a.21.21,0,0,0-.11,0Zm-.2-.48h0L6,8.34l.08.05,0,.32Zm.17,0L6,8.25A.29.29,0,0,0,6,7.91l.17,0-.07.47Zm.09.06.07-.49L9,7.57a.14.14,0,0,0,0,.06l0,0-.21.22L7.66,9.1a.23.23,0,0,0-.25,0,.23.23,0,0,0-.07.07Zm-.27-.62.52-1.47h0L6.2,7.86,6,7.88a.3.3,0,0,0-.13-.12M5.4,12.22l0-5,.15,0a.36.36,0,0,0,.14-.46l0,0,.63-.5a.28.28,0,0,0,.11.08L5.86,7.75a.26.26,0,0,0-.21,0,.28.28,0,0,0-.12.39.27.27,0,0,0,.34.14l.19.47-.28,1.92a.3.3,0,0,0-.14.59h0l-.21.93h0M6.78,6.1a.34.34,0,0,0,0-.2l.52-.21,1,.95L9,7.38a.23.23,0,0,0,0,.16l-2.77.32.23-1.55h0a.3.3,0,0,0,.29-.21m-.06-.3L7,5.54a.27.27,0,0,0,.24.08l0,0-.5.21a.59.59,0,0,0,0-.08m.52-.19.06,0a.28.28,0,0,0,.14-.3l.85,0-1,.41Zm.57.54-.49-.47,1.07-.43,2.29-.11a.09.09,0,0,0,0,.05.43.43,0,0,0,.09.1L9.33,7.34a.22.22,0,0,0-.22,0l0,0Zm-.39-1v0L9,4.75A.28.28,0,0,0,9,5l-.65.27-.93,0s0,0,0-.06m2-.08a.29.29,0,0,0,.12-.39l-.06-.08v0l1-.27s0,0,0,0a.21.21,0,0,0,.23.1l.09.39-.06,0a.22.22,0,0,0-.12.22l-.46,0-1.75.08L9,5H9a.27.27,0,0,0,.25.16.31.31,0,0,0,.13,0M19.7,4.19l.05,0h0L21,5.84A.31.31,0,0,0,20.9,6l-.28,0Zm-8.92.28h0a.19.19,0,0,0,.09-.23l1.64-.84,0,0L11.48,4.52,11.06,5a.21.21,0,0,0-.18-.09Zm5.68.09a.1.1,0,0,0,0,0L17,3.88h0a.28.28,0,0,0,.27-.32L17.84,3l1.35.7s0,0,0,0a.32.32,0,0,0,.08.32l-.75.15-2,.41s0,0,0,0M13.41,3a.24.24,0,0,0,.09-.08l.65.44.9.61,0,0-.25-.08-1.86-.57a.26.26,0,0,0,0-.15s0,0,0,0l0,0a.29.29,0,0,0,.27,0A.2.2,0,0,0,13.29,3h0a.16.16,0,0,0,.1,0m2,1.18h0a.25.25,0,0,0,0-.19h0l2-1.19.38.19-.52.57s0,0,0-.07a.3.3,0,0,0-.39-.13.31.31,0,0,0-.12.4.32.32,0,0,0,.21.15l-.56.61a.21.21,0,0,0-.24,0,.24.24,0,0,0-.09.08ZM11,2.71h0L10.75,4.1a.18.18,0,0,0-.14,0,.2.2,0,0,0-.09.21l-1,.26Zm.19,0a.22.22,0,0,0,.09-.1l1.23.59a.2.2,0,0,0,0,.17L11,4.12l-.15.08a.22.22,0,0,0-.1-.09l.28-1.38h0l.1,0m7.15-.08.05,0,.9,1a.27.27,0,0,0-.07.08L17.86,3l.27-.3h.08a.27.27,0,0,0,.12,0M12,2.91l-.69-.32s0,0,0,0l1.52.17a.33.33,0,0,0,0,.29.43.43,0,0,0,.09.1l0,0a.21.21,0,0,0-.26,0,.2.2,0,0,0-.09.09Zm5.5-.16L18,2.46s0,0,0,0a.25.25,0,0,0,.14.13l-.28.3Zm-7.2-.27v0l.59.1s0,0,0,.06A.24.24,0,0,0,11,2.7L9.47,4.61h0a.28.28,0,0,0-.28,0A.34.34,0,0,0,9,4.72l-1.65.44,0,0L9.78,2.61a.41.41,0,0,0,.11.07H10a.3.3,0,0,0,.29-.21m9-.09.07,0L21,5.81h0L19.79,4.14a.23.23,0,0,0,.05-.27l0,0-.06,0a.3.3,0,0,0-.21-.29.22.22,0,0,0-.11,0Zm.1,0,0,0,2.95,4.15a.39.39,0,0,0-.08.1l-.82-.4a.31.31,0,0,0,0-.25.3.3,0,0,0-.27-.16v0h0s0,0,0,0v.09l-.06,0ZM8.67,2.5a.33.33,0,0,0,.18-.29l.84.14a.3.3,0,0,0,.07.23L7.34,5.1a.29.29,0,0,0-.42.37.09.09,0,0,0,0,0l-.26.26a.3.3,0,0,0-.44.39l-.63.51a.28.28,0,0,0-.1-.09L8.37,2.5a.29.29,0,0,0,.16,0,.23.23,0,0,0,.14,0m6.67,1.38.94-1.72,1.12.59-2,1.19-.07-.06M10.28,2.42a.49.49,0,0,0,0-.12l1.32-.22-.35.28a.2.2,0,0,0-.26,0,.22.22,0,0,0-.12.21Zm1,.1a.2.2,0,0,0,0-.11s0,0,0,0l.38-.31L13.8,1.7l-.43.86a.23.23,0,0,0-.16,0l0,0a.23.23,0,0,0-.25,0,.16.16,0,0,0-.09.07Zm5.36-.81a.34.34,0,0,0,.06-.06L18,2.27a.3.3,0,0,0,0,.16l-.5.3-1.15-.59.23-.43h.13m.07-.09h0L18.86,2a.34.34,0,0,0,0,.2.32.32,0,0,0,.33.18l.18,1.12-.1,0-.9-1a.29.29,0,0,0,.05-.32.27.27,0,0,0-.37-.12.25.25,0,0,0-.11.12ZM15.24,3.85,15,1.77a.31.31,0,0,0,.22-.18l1.08.56-.93,1.72-.08,0M14,3.18l-.45-.31a.21.21,0,0,0,0-.19.29.29,0,0,0-.11-.11l.44-.87.77-.13a.3.3,0,0,0,.19.19.25.25,0,0,0,.12,0l.29,2.07-.08,0a.2.2,0,0,0-.07.06Zm1.22-1.62a.57.57,0,0,0,0-.13l1.24.14a.14.14,0,0,0,0,.07l.05.06-.23.42Zm0-.16a.14.14,0,0,0,0-.06l.95.16Zm-1-.15a.1.1,0,0,0,.06-.05l.42.17h0a.29.29,0,0,0,0,.16l-.76.12.2-.4h0l.06,0m.08-.08.48.09a.15.15,0,0,0-.06.09Zm-1.38.29A.3.3,0,0,0,13,1.2l1-.05s0,0,0,0a.12.12,0,0,0,.07.07l-.21.41L11.69,2l.8-.65a.26.26,0,0,0,.21.11.28.28,0,0,0,.13,0m.12-.4a.21.21,0,0,0,0-.06l.71-.46a.34.34,0,0,0,.3.14L14,1h0a.16.16,0,0,0-.06.08h0s0,0,0,0l-1,0a.23.23,0,0,0,0-.11m1-.39a.32.32,0,0,0,.09,0,.32.32,0,0,0,.14-.16l2.28,1a.08.08,0,0,0,0,.05l-1.3-.23A.33.33,0,0,0,15,1.18a.27.27,0,0,0-.26.05l-.52-.09a.15.15,0,0,0,0-.07A.14.14,0,0,0,14.05,1ZM8.85,2.18a.43.43,0,0,0,0-.11L13.58.45s0,0,0,0h0L12.89,1a.27.27,0,0,0-.32,0,.29.29,0,0,0-.12.39l0,0L11.64,2l-1.38.24a.34.34,0,0,0-.19-.18.3.3,0,0,0-.37.2,0,0,0,0,1,0,0ZM14.19.46v0L18.87,2h0l-2.14-.4a.13.13,0,0,0,0-.08.16.16,0,0,0-.2-.07l0,0ZM13.71.05a.34.34,0,0,0-.14.37L8.81,2a.33.33,0,0,0-.44-.14.35.35,0,0,0-.14.46.37.37,0,0,0,.12.13L5.49,6.58a.29.29,0,0,0-.27,0,.35.35,0,0,0-.15.46.34.34,0,0,0,.27.18l0,5a.32.32,0,0,0-.14,0l-.06,0a5.37,5.37,0,0,0,.44.51.32.32,0,0,0,.09-.17l.82.13.72,1.44,0,0-.73-1.46.79.13a.34.34,0,0,0,0,.17.28.28,0,0,0,.28.15l.21,1.4,0,0-.22-1.42.07,0,.08-.06,1.37.71a.3.3,0,0,0,0,.1v0a.14.14,0,0,0,0,.07.1.1,0,0,0,0,.05L8.48,15l0,0,.77-.89a.24.24,0,0,0,.2.05l1,1.8h0l-1-1.82h0a.26.26,0,0,0,.1-.11l2.86,1.07a.25.25,0,0,0,0,.17.18.18,0,0,0,0,.07L11,16.16h0l1.52-.82a.23.23,0,0,0,.16,0l.41,1.5h0l-.41-1.52h0a.23.23,0,0,0,.07-.07l1.41,1,.45.31v0l-.45-.32-1.4-1a.24.24,0,0,0,0-.22h0l1.88-1.34a.22.22,0,0,0,.22.08l.23.84v-.06l-.13-.48L15,13.77h0a.15.15,0,0,0,.06,0l.28.2v0l-.26-.2a.27.27,0,0,0,0-.18l.36-.12v0l-.38.14v0l-.06-.08.71-1.14,0-.08L15,13.37a.11.11,0,0,0-.08,0l0-.72,0-1h0l0,1,0,.72-.09,0a.27.27,0,0,0-.08.07l-.81-.55L12.35,11.8a.26.26,0,0,0,0-.21l0,0,.79-.63h0l-.78.62a.2.2,0,0,0-.25,0l-.81-1.44,0-.05-.35-.26,0,.08L7.73,9.29a.25.25,0,0,0,0-.12l0-.05L8.87,7.9l.2-.21a.2.2,0,0,0,.24,0l0,0,.74.91s0,0,0-.06l-.71-.87a.23.23,0,0,0,.07-.15l.73,0v0l-.74,0a.29.29,0,0,0,0-.09l-.06-.07,1.46-2a.2.2,0,0,0,.17,0l.11.31.18.45h0l-.19-.48L11,5.28a.23.23,0,0,0,.08-.3h0l1.49-1.53a.26.26,0,0,0,.09,0v0l-.43,2h0l.43-2.07a.19.19,0,0,0,.13,0,.21.21,0,0,0,.11-.12L15,4a.23.23,0,0,0,0,.16.05.05,0,0,0,0,0l-1,1h0l1-1a.21.21,0,0,0,.15.07l0,.86h0l0-.87.07,0a.2.2,0,0,0,.09-.09l.65.38a.23.23,0,0,0,.11.31l-.12.32h0l.11-.31a.26.26,0,0,0,.17,0,.16.16,0,0,0,.07-.07l.86.55h.07l-.91-.58a.22.22,0,0,0,0-.14l2.81-.57a.2.2,0,0,0,.08,0,.22.22,0,0,0,.11,0,.13.13,0,0,0,.07.06l-.63,1.54h0l.25-.61.38-.93a.13.13,0,0,0,.09,0l.92,1.86-.25,0a.31.31,0,0,0,0-.21.28.28,0,0,0-.38-.13.31.31,0,0,0-.16.26l.5.19a.22.22,0,0,0,0-.08l.27,0,.16.31,0,0-.16-.33.26,0a.35.35,0,0,0,0,.14.28.28,0,0,0,.28.16l.07.27h0l-.07-.29a.11.11,0,0,0,.07,0,.25.25,0,0,0,.12-.11l.82.4a.33.33,0,0,0,0,.29.31.31,0,0,0,.16.16l-.06.13h0l.06-.13h.08v.2l0,0V7.07a.32.32,0,0,0,.14,0A.27.27,0,0,0,22.78,7l.1-.24a.28.28,0,0,0,0-.15.32.32,0,0,0-.44-.15l0,0L19.42,2.3a.39.39,0,0,0,.06-.4A.32.32,0,0,0,19,1.76a.34.34,0,0,0-.15.18L14.21.4a.42.42,0,0,0,0-.22A.43.43,0,0,0,14,0l-.32,0"/></clipPath><linearGradient id="Dégradé_sans_nom_51" x1="-409.53" y1="313.33" x2="-409.2" y2="313.33" gradientTransform="translate(-22172.72 16990.24) rotate(180) scale(54.2)" gradientUnits="userSpaceOnUse"><stop offset="0" stop-color="#239546"/><stop offset="1" stop-color="#92c73e"/></linearGradient><clipPath id="clip-path-3"><path class="cls-1" d="M3.84,8.65c0,6.44,10.72,8.59,10.72,8.59l1.32-5.42S10,10.45,10,8.33c0-1.75,1.43-3.17,5.13-3.17a14.87,14.87,0,0,1,7.47,2.18l1.92-4.88A17.63,17.63,0,0,0,15.21,0C7.54,0,3.84,3.93,3.84,8.65"/></clipPath><clipPath id="clip-path-4"><path class="cls-1" d="M20.92,8.46a.85.85,0,1,0,.84-.87.86.86,0,0,0-.84.87"/></clipPath><clipPath id="clip-path-5"><rect class="cls-1" x="20.92" y="7.59" width="1.69" height="1.74"/></clipPath><linearGradient id="Dégradé_sans_nom_51-2" x1="-453.08" y1="316.49" x2="-452.75" y2="316.49" gradientTransform="translate(-2295.78 1627.93) rotate(180) scale(5.12)" xlink:href="#Dégradé_sans_nom_51"/><clipPath id="clip-path-6"><path class="cls-1" d="M18.72,4a.85.85,0,1,0,.84-.87.86.86,0,0,0-.84.87"/></clipPath><linearGradient id="Dégradé_sans_nom_51-3" x1="-453.95" y1="314.79" x2="-453.62" y2="314.79" gradientTransform="translate(-2302.45 1614.76) rotate(180) scale(5.12)" xlink:href="#Dégradé_sans_nom_51"/><clipPath id="clip-path-7"><path class="cls-1" d="M8.05,14.73l.39.22A.94.94,0,0,0,8.05,14.73Z"/></clipPath><linearGradient id="Dégradé_sans_nom_51-4" x1="-458.61" y1="318.91" x2="-458.28" y2="318.91" gradientTransform="translate(-2338.01 1646.72) rotate(180) scale(5.12)" xlink:href="#Dégradé_sans_nom_51"/><clipPath id="clip-path-8"><path class="cls-1" d="M5.92,5.58a.85.85,0,1,0,.85-.87.86.86,0,0,0-.85.87"/></clipPath><linearGradient id="Dégradé_sans_nom_51-5" x1="-459.04" y1="315.39" x2="-458.71" y2="315.39" gradientTransform="translate(-2341.3 1619.44) rotate(180) scale(5.12)" xlink:href="#Dégradé_sans_nom_51"/><clipPath id="clip-path-10"><path class="cls-1" d="M19.94,13.92a.84.84,0,1,0,.84-.87.85.85,0,0,0-.84.87"/></clipPath><clipPath id="clip-path-11"><rect class="cls-1" x="19.94" y="13.05" width="1.69" height="1.74"/></clipPath><linearGradient id="Dégradé_sans_nom_51-6" x1="-453.47" y1="318.56" x2="-453.14" y2="318.56" gradientTransform="translate(-2298.77 1644.02) rotate(180) scale(5.12)" xlink:href="#Dégradé_sans_nom_51"/><clipPath id="clip-path-12"><path class="cls-1" d="M12.1,2.86A.85.85,0,1,0,12.94,2a.86.86,0,0,0-.84.87"/></clipPath><linearGradient id="Dégradé_sans_nom_51-7" x1="-456.59" y1="314.35" x2="-456.26" y2="314.35" gradientTransform="translate(-2322.15 1611.1) rotate(180) scale(5.12)" xlink:href="#Dégradé_sans_nom_51"/><clipPath id="clip-path-13"><path class="cls-1" d="M4.92,12A8.35,8.35,0,0,0,6,13.23a.87.87,0,0,0-.66-1.41.8.8,0,0,0-.45.14"/></clipPath><linearGradient id="Dégradé_sans_nom_51-8" x1="-459.59" y1="318.03" x2="-459.26" y2="318.03" gradientTransform="translate(-2345.5 1639.89) rotate(180) scale(5.12)" xlink:href="#Dégradé_sans_nom_51"/><clipPath id="clip-path-14"><path class="cls-1" d="M12.77,16h0l.07-.07,1.09.78Zm-1.65-1h0l1.13.6s0,.05,0,.07Zm-2.71-.11,0-.1,2.21.1a.27.27,0,0,0,.11.18l.11,0A.25.25,0,0,0,11.1,15l1.14.68a.48.48,0,0,0,.06.18.35.35,0,0,0,.44.12l1.23.74s0,0,0,.05ZM8.3,13.43a.21.21,0,0,0,.15-.07l2,1.23Zm-.86-.17,0,0a.36.36,0,0,0,.11-.14l.52.28.07,0,2.48,1.33a.43.43,0,0,0,0,.05.08.08,0,0,0,0,0l-2.2-.09a.41.41,0,0,0-.32-.44.37.37,0,0,0-.23,0Zm1,.07a.23.23,0,0,0,.06-.12.29.29,0,0,0-.13-.27l.91-2.44h.15l.64,2,.71,2.14a.27.27,0,0,0-.11.1ZM7.13,10l2,.33a.32.32,0,0,0,.13.15l-.91,2.44,0,0a.24.24,0,0,0-.27.15l0,0s0,0,0,0v.1a.19.19,0,0,0,0,.07l-.43-.23a.39.39,0,0,0,0-.33.34.34,0,0,0-.43-.12L6.5,11.28a.35.35,0,0,0,.06-.14.36.36,0,0,0-.16-.35l.25-.55.1,0h.06A.33.33,0,0,0,7.13,10M4.39,9.46l.11-.08L6,10.89A.35.35,0,0,0,5.9,11a.35.35,0,0,0,.28.39.31.31,0,0,0,.29-.1l.64,1.32h0a.36.36,0,0,0-.08.5.34.34,0,0,0,.4.13l.45,1.09,0,0Zm.36-1.69,1.45,3a.3.3,0,0,0-.22.12L4.52,9.35a.31.31,0,0,0,.09-.19.41.41,0,0,0-.26-.44l.25-1h.15M7.28,7l2,3.08a.25.25,0,0,0-.1.16.2.2,0,0,0,0,.11l-2-.33a.33.33,0,0,0-.27-.37H6.8L7.09,7h.06a.2.2,0,0,0,.13,0m0,0a.34.34,0,0,0,.09-.14l1.33.33h0a.25.25,0,0,0,.21.3H9l.12.94L9.34,10l-.08,0Zm-1,3.8h0l-1.44-3,.09,0A.37.37,0,0,0,5,7.22v0l2-.4A.27.27,0,0,0,7.06,7L6.78,9.6a.34.34,0,0,0-.3.29.33.33,0,0,0,.14.33l-.25.55-.09,0m1.13-4h0a.29.29,0,0,0-.11-.26l.39-.67L8,5.25h.09l.69,1.6,0,.1a.23.23,0,0,0-.12.15Zm-.21-.3h0L7,4.88,8,5.14A.15.15,0,0,0,8,5.23L7.27,6.5l-.07,0m-2.35.64L6,4.83l.08,0h.12L7,6.51A.3.3,0,0,0,7,6.59l0,0,0,.07v.08l-2,.41a.13.13,0,0,0-.07-.06M6.27,4.84a.29.29,0,0,0,.17-.14L7,4.87l.11,1.61H7.06Zm11.26-.06s0,0,0,0a.25.25,0,0,0,0-.17l2.15-1.42a.25.25,0,0,0,.16.1.24.24,0,0,0,.12,0L21,6a.3.3,0,0,0-.12.13ZM20,3.23a.25.25,0,0,0,.12-.11l3,1.49a.24.24,0,0,0,.05.1.26.26,0,0,0,.09.09.17.17,0,0,0,0,.1l-2,1.19A.21.21,0,0,0,21.14,6,.25.25,0,0,0,21,6Zm1.6-.52.91-.17.79,1.65,0,0a.34.34,0,0,0-.14.36l-.81-.4L20.1,3.09l0,0V3l1-.17a.35.35,0,0,0,.16.08h.05a.32.32,0,0,0,.28-.16m-15.11,2,0-.1a.33.33,0,0,0-.21-.37l.53-1.69h0l0,.62L7,4.83ZM7,4.84,6.92,3.18l0-.67h0L8,5A.2.2,0,0,0,8,5.08v0Zm15.48-2.3L23,2.46a.32.32,0,0,0,.2.12h.07l.18,1.56-.12,0Zm-.23-.48.64.08s0,0,0,.06a.31.31,0,0,0,0,.23l-.46.08ZM17.44,4.49l1.73-2.57a.19.19,0,0,0,.08,0,.26.26,0,0,0,.15,0l.35.83a.28.28,0,0,0-.14.19.32.32,0,0,0,0,.17l-1.2.79-1,.63s0,0,0,0m-.4,0-3-1.94a.3.3,0,0,0,0-.1V2.4l1.16-.16L19,1.74a.27.27,0,0,0,.1.16L17.42,4.47l-.09,0a.24.24,0,0,0-.25.1Zm2.39-2.58h0a.25.25,0,0,0,.12-.19h0l2.69.33.22.45-.87.16,0-.08a.35.35,0,0,0-.27-.4.34.34,0,0,0-.39.28.36.36,0,0,0,.09.29l-.94.17a.26.26,0,0,0-.2-.2.27.27,0,0,0-.13,0Zm-7.89,2h0L11.34.85a.26.26,0,0,0,.17-.09l2.12,1.55a.19.19,0,0,0,0,.07.29.29,0,0,0,0,.16l-1,.76-.94.7a.26.26,0,0,0-.15-.09M14.41,0l0,.13-.52,2a.24.24,0,0,0-.21.11L11.53.73l0-.1a.34.34,0,0,0,0-.1l1.2-.38-.18,0-1,.33a.24.24,0,0,0-.11-.13L11.1.44h0l0,0a.24.24,0,0,0,0,.08.06.06,0,0,0,0,.06l-.35.05-.8.12L9.74.84l1-.15.33,0a.25.25,0,0,0,.21.21h0l.11,2.2.05.86a.26.26,0,0,0-.13.06L8.77,1.23l0,0L11.31,4a.3.3,0,0,0-.06.14.14.14,0,0,0,0,.09l-3,.84A.17.17,0,0,0,8.13,5l.38-3.6,0,0L8.1,4.94,8,5,7,2.49a.27.27,0,0,0,.14-.2.14.14,0,0,0,0-.09l-.37.28,0,0L6.25,4.19H6.13L6,3.17l0,0,.15,1A.26.26,0,0,0,6,4.26l-.47-.5,0,0,.47.5a.3.3,0,0,0-.08.17A.35.35,0,0,0,6,4.81L4.82,7.1a.23.23,0,0,0-.11,0l.46-2.89,0,.07L4.67,7.07a.31.31,0,0,0-.19.06.37.37,0,0,0-.09.5.32.32,0,0,0,.18.13l-.25,1h0l0-2.79a.42.42,0,0,0,0,.1l0,2.68A.38.38,0,0,0,3.86,9a2.29,2.29,0,0,0,0,.25.37.37,0,0,0,.29.23.41.41,0,0,0,.19,0l3.43,5-.07.09c.22.14.44.28.66.4h0l5.55,1.91s0,0,0,0a.42.42,0,0,0,0,.25l.57.14,0,0,.12-.47h0v0l0,0v-.05l-.07,0a.42.42,0,0,0-.25-.16.37.37,0,0,0-.37.15l-1.13-.81a.37.37,0,0,0,0-.23l2.1-.32v0l-2.11.33a.35.35,0,0,0-.06-.14.33.33,0,0,0-.48-.08.31.31,0,0,0-.13.17L11.14,15l0-.06h0l3.9.31v0l-3.91-.31a.27.27,0,0,0,0-.12l.22-.13,1.89-1.13a.25.25,0,0,0,.17.11.26.26,0,0,0,.28-.15l1.67.52v0L13.7,13.4s0,0,0,0a.49.49,0,0,0,0-.12l2-.76v0l-2,.76a.23.23,0,0,0-.19-.15h-.1l-.69-2.31,0,0,.7,2.34a.27.27,0,0,0-.17.2.41.41,0,0,0,0,.16l-1.76,1.05-.35.21a.24.24,0,0,0-.11-.09L12.37,11l.12-.31h0L12,11.87,11,14.6h-.14l-.71-2.15-.64-1.95a.24.24,0,0,0,.15-.2v0l2.25.09-.07,0-2.18-.09A.25.25,0,0,0,9.52,10l.62-1.22v0L9.49,10l-.06,0H9.37L9.2,8.7,9,7.45a.27.27,0,0,0,.2-.22.27.27,0,0,0,0-.09L9.93,7l.56-.15,0,0-1.3.34A.26.26,0,0,0,9,6.93a.29.29,0,0,0-.13,0L8.16,5.25l.06,0,2.6,1.22,0,0-1.51-.7-1.1-.52V5.1l1.53-.43,1.48-.42a.26.26,0,0,0,.2.18L11.29,6l0,0,.17-1.59a.23.23,0,0,0,.22-.12l1.49.88.17.1h.06l-1.7-1a.14.14,0,0,0,0-.07.23.23,0,0,0,0-.18l1.93-1.46a.29.29,0,0,0,.18.12h.09l1,2.47h0l-1-2.48.11-.08,3,1.95,0,0,0,.08a.28.28,0,0,0,.07.22l-.36.39h0l.34-.36.12.06h.06l.07.39h.06L17.35,5a.25.25,0,0,0,.16-.14l3.35,1.35s0,0,0,0a.26.26,0,0,0,0,.15l-.07.05.06,0,0,0a.23.23,0,0,0,.16.11h.09l0,.06,0,0,0-.09a.26.26,0,0,0,.13-.1l.46.29L22.2,7a.36.36,0,0,0,0,.14l.38.21h0l.18-.45a.32.32,0,0,0-.25-.2.33.33,0,0,0-.38.27l-.58-.37-.29-.19a.19.19,0,0,0,0-.08.29.29,0,0,0,0-.16l1-.59,1-.6a.3.3,0,0,0,.08.08l-.13.8.06-.15L23.4,5l.06,0h0v.13l0-.08v0h0l.24-.6a.47.47,0,0,0-.06-.15.28.28,0,0,0-.1-.09L24.21,3l.08,0,0,.21.06-.16v0h0l.23-.59-.29-.19-.11,0L24,2.13l-.08,0,.18.25h0L23.8,2,23.7,2l.39.43a.41.41,0,0,0-.1.21.39.39,0,0,0,.19.41l-.59,1.18-.13,0-.17-1.56a.34.34,0,0,0,.26-.27.34.34,0,0,0-.27-.38.37.37,0,0,0-.18,0l-.2-.4-.06,0,.23.44a.44.44,0,0,0-.13.14L22.27,2l-.44-.91,0,0,.45.92L19.55,1.7a.3.3,0,0,0,0-.1L21.1.87h-.05l-1.53.71-.06-.08L20,.55h0l-.49.93-.09,0h-.1L18.84.32h0l.4,1.14h0L19,1.21l-.71-1h-.05l.91,1.26a.27.27,0,0,0-.1.17V1.7l-4.6.62-.33,0A.75.75,0,0,0,14,2.24l.89-.81L16.48,0h-.05L14,2.22a.22.22,0,0,0-.11-.05h0L14.42.11l0-.1h0"/></clipPath><linearGradient id="Dégradé_sans_nom_67-2" x1="-408.81" y1="313.29" x2="-408.48" y2="313.29" gradientTransform="translate(-25913.97 19886.51) rotate(180) scale(63.45)" xlink:href="#Dégradé_sans_nom_67"/><clipPath id="clip-path-16"><path class="cls-1" d="M21.65,9.92a1,1,0,0,0,.2,1.42,1,1,0,0,0,1.38-.21A1,1,0,0,0,23,9.71a1,1,0,0,0-1.38.21"/></clipPath><clipPath id="clip-path-17"><rect class="cls-1" x="21.33" y="9.37" width="2.23" height="2.3"/></clipPath><linearGradient id="Dégradé_sans_nom_67-3" x1="-445.81" y1="316.65" x2="-445.49" y2="316.65" gradientTransform="translate(-2645.32 1906.07) rotate(180) scale(5.99)" xlink:href="#Dégradé_sans_nom_67"/><clipPath id="clip-path-18"><path class="cls-1" d="M22.62,4.14a1,1,0,0,0,.64,1.62L24,3.92a1,1,0,0,0-.58-.19,1,1,0,0,0-.79.41"/></clipPath><linearGradient id="Dégradé_sans_nom_67-4" x1="-445.49" y1="314.77" x2="-445.16" y2="314.77" gradientTransform="translate(-2642.39 1889.03) rotate(180) scale(5.99)" xlink:href="#Dégradé_sans_nom_67"/><clipPath id="clip-path-19"><path class="cls-1" d="M4.2,6.21a8.26,8.26,0,0,0-.32,1.66L4,8a1,1,0,0,0,1.38-.2,1.05,1.05,0,0,0-.21-1.43,1,1,0,0,0-.58-.2,1,1,0,0,0-.38.08"/></clipPath><linearGradient id="Dégradé_sans_nom_67-5" x1="-451.89" y1="315.58" x2="-451.56" y2="315.58" gradientTransform="translate(-2699.53 1896.31) rotate(180) scale(5.99)" xlink:href="#Dégradé_sans_nom_67"/><clipPath id="clip-path-21"><path class="cls-1" d="M17,14.32a1.06,1.06,0,0,0,.2,1.43,1,1,0,0,0,1.38-.21,1,1,0,0,0-.2-1.42,1,1,0,0,0-1.38.2"/></clipPath><clipPath id="clip-path-22"><rect class="cls-1" x="16.71" y="13.78" width="2.23" height="2.3"/></clipPath><linearGradient id="Dégradé_sans_nom_67-6" x1="-447.39" y1="318.09" x2="-447.06" y2="318.09" gradientTransform="translate(-2659.35 1919.07) rotate(180) scale(5.99)" xlink:href="#Dégradé_sans_nom_67"/><clipPath id="clip-path-24"><path class="cls-1" d="M17.18-1.7a1,1,0,0,0,.2,1.42,1,1,0,0,0,1.38-.21,1,1,0,0,0-.2-1.42,1,1,0,0,0-1.38.21"/></clipPath><clipPath id="clip-path-25"><rect class="cls-1" x="16.85" y="-2.25" width="2.23" height="2.3"/></clipPath><linearGradient id="Dégradé_sans_nom_67-7" x1="-447.34" y1="312.87" x2="-447.01" y2="312.87" gradientTransform="translate(-2658.88 1871.81) rotate(180) scale(5.99)" xlink:href="#Dégradé_sans_nom_67"/><clipPath id="clip-path-27"><path class="cls-1" d="M3.42,2.05a1.06,1.06,0,0,0,.2,1.43A1,1,0,0,0,5,3.27a1,1,0,0,0-.2-1.42,1,1,0,0,0-1.38.2"/></clipPath><clipPath id="clip-path-28"><rect class="cls-1" x="3.1" y="1.51" width="2.23" height="2.3"/></clipPath><linearGradient id="Dégradé_sans_nom_67-8" x1="-452.01" y1="314.09" x2="-451.68" y2="314.09" gradientTransform="translate(-2700.64 1882.89) rotate(180) scale(5.99)" xlink:href="#Dégradé_sans_nom_67"/></defs><title>Sans titre - 6</title><g class="cls-2"><rect class="cls-3" x="3.59" y="12.11" width="22.41" height="16.89"/></g><g class="cls-4"><rect class="cls-5" x="4.99" y="0.03" width="17.89" height="16.85"/></g><g class="cls-6"><g class="cls-7"><g class="cls-8"><rect class="cls-9" x="20.92" y="7.59" width="1.69" height="1.74"/></g></g></g><g class="cls-10"><rect class="cls-11" x="18.72" y="3.13" width="1.69" height="1.74"/></g><g class="cls-12"><rect class="cls-13" x="8.05" y="14.73" width="0.39" height="0.22"/></g><g class="cls-14"><rect class="cls-15" x="5.92" y="4.71" width="1.69" height="1.74"/></g><g class="cls-6"><g class="cls-16"><g class="cls-17"><rect class="cls-18" x="19.94" y="13.05" width="1.69" height="1.74"/></g></g></g><g class="cls-19"><rect class="cls-20" x="12.1" y="1.99" width="1.69" height="1.74"/></g><g class="cls-21"><rect class="cls-22" x="4.92" y="11.82" width="1.3" height="1.41"/></g><g class="cls-23"><rect class="cls-24" x="3.86" y="0.01" width="20.71" height="17.22"/></g><g class="cls-6"><g class="cls-25"><g class="cls-26"><rect class="cls-27" x="21.33" y="9.37" width="2.23" height="2.3"/></g></g></g><g class="cls-28"><rect class="cls-29" x="22.29" y="3.73" width="1.69" height="2.02"/></g><g class="cls-30"><rect class="cls-31" x="3.88" y="6.13" width="1.81" height="2.17"/></g><g class="cls-6"><g class="cls-32"><g class="cls-33"><rect class="cls-34" x="16.71" y="13.78" width="2.23" height="2.3"/></g></g></g><g class="cls-6"><g class="cls-35"><g class="cls-36"><rect class="cls-37" x="16.85" y="-2.25" width="2.23" height="2.3"/></g></g></g><g class="cls-6"><g class="cls-38"><g class="cls-39"><rect class="cls-40" x="3.1" y="1.51" width="2.23" height="2.3"/></g></g></g></svg>